# Blender 4.1.0
# www.blender.org
mtllib PrototypeGameboard.mtl
o Game_of_Ur_Board.001
v -0.500000 0.000000 10.000000
v -1.500000 0.000000 2.000000
v -0.500000 1.000000 10.000000
v -1.500000 1.000000 2.000000
v -0.500000 0.000000 2.000000
v -1.500000 0.000000 -2.000000
v -0.500000 1.000000 2.000000
v -1.500000 1.000000 -2.000000
v 0.500000 0.000000 10.000000
v 1.500000 0.000000 2.000000
v 0.500000 1.000000 10.000000
v 1.500000 1.000000 2.000000
v 0.500000 0.000000 2.000000
v 1.500000 0.000000 -2.000000
v 0.500000 1.000000 2.000000
v 1.500000 1.000000 -2.000000
vn -1.0000 -0.0000 -0.0000
vn 1.0000 -0.0000 -0.0000
vn -0.0000 -0.0000 1.0000
vn -0.0000 1.0000 -0.0000
vn -0.0000 -0.0000 -1.0000
vn -0.0000 -1.0000 -0.0000
vt 0.154433 1.000000
vt 0.231356 0.384615
vt 0.231356 1.000000
vt 0.076923 1.000000
vt 0.000000 0.384615
vt 0.076923 0.384615
vt 0.692308 0.230769
vt 0.615385 0.307692
vt 0.615385 0.230769
vt 0.307926 0.615385
vt 0.384849 0.615385
vt 0.461772 0.923077
vt 0.154433 0.307692
vt 0.231356 -0.000000
vt 0.231356 0.307692
vt 0.692895 0.230769
vt 0.769818 0.000000
vt 0.769818 0.230769
vt 0.076923 0.000000
vt 0.000000 0.307692
vt -0.000000 0.000000
vt 0.154433 0.384615
vt 0.461539 0.307692
vt 0.384616 0.000000
vt 0.538462 0.307692
vt 0.000000 1.000000
vt 0.692308 0.307692
vt 0.231002 0.923077
vt 0.231002 0.615385
vt 0.307926 0.000000
vt 0.384849 0.000000
vt 0.461772 0.615385
vt 0.154433 -0.000000
vt 0.692895 0.000000
vt 0.076923 0.307692
vt 0.384616 0.307692
vt 0.615385 0.000000
vt 0.538462 0.923077
vt 0.461539 0.923077
s 0
g Game_of_Ur_Board.001_Material.001
usemtl Material.001
f 3/1/1 5/2/1 1/3/1
f 11/4/2 13/5/2 15/6/2
f 11/7/3 1/8/3 9/9/3
f 7/10/4 15/11/4 16/12/4
f 4/13/1 6/14/1 2/15/1
f 8/16/5 14/17/5 6/18/5
f 16/19/2 10/20/2 14/21/2
f 4/13/3 5/2/3 7/22/3
f 10/20/3 15/6/3 13/5/3
f 5/23/6 6/24/6 13/25/6
f 3/1/1 7/22/1 5/2/1
f 11/4/2 9/26/2 13/5/2
f 11/7/3 3/27/3 1/8/3
f 16/12/4 8/28/4 4/29/4
f 7/10/4 3/30/4 11/31/4
f 16/12/4 4/29/4 7/10/4
f 15/11/4 12/32/4 16/12/4
f 7/10/4 11/31/4 15/11/4
f 4/13/1 8/33/1 6/14/1
f 8/16/5 16/34/5 14/17/5
f 16/19/2 12/35/2 10/20/2
f 4/13/3 2/15/3 5/2/3
f 10/20/3 12/35/3 15/6/3
f 5/23/6 2/36/6 6/24/6
f 6/24/6 14/37/6 10/8/6
f 13/25/6 9/38/6 1/39/6
f 6/24/6 10/8/6 13/25/6
f 13/25/6 1/39/6 5/23/6
